<?xml version="1.0" standalone="no"?>
<!DOCTYPE svg PUBLIC "-//W3C//DTD SVG 20010904//EN"
 "http://www.w3.org/TR/2001/REC-SVG-20010904/DTD/svg10.dtd">
<svg version="1.0" xmlns="http://www.w3.org/2000/svg"
 width="256.000000pt" height="256.000000pt" viewBox="0 0 256.000000 256.000000"
 preserveAspectRatio="xMidYMid meet">

<g transform="translate(0.000000,256.000000) scale(0.100000,-0.100000)"
fill="#000000" stroke="none">
<path d="M913 2334 c-42 -21 -63 -68 -63 -143 l0 -61 -341 0 -341 0 -29 -29
c-41 -41 -41 -98 0 -143 l29 -33 565 -3 565 -2 -25 -63 c-67 -165 -183 -360
-274 -459 l-39 -43 -41 45 c-23 25 -77 99 -121 165 -83 126 -113 152 -163 139
-34 -8 -75 -60 -75 -93 0 -41 166 -298 229 -355 12 -11 21 -24 21 -30 0 -6
-110 -121 -245 -256 -234 -235 -245 -248 -245 -284 0 -30 7 -45 35 -73 33 -33
39 -35 82 -30 44 5 52 12 284 243 l239 239 112 -112 c62 -61 123 -116 135
-122 77 -39 173 44 143 125 -6 16 -64 82 -128 147 -88 88 -114 120 -107 131 6
7 31 40 58 72 118 146 228 339 298 527 l32 87 114 0 c126 0 161 11 181 55 21
47 15 94 -17 126 l-29 29 -341 0 -341 0 0 61 c0 76 -21 122 -65 143 -41 20
-52 20 -92 0z"/>
<path d="M1805 1480 c-56 -23 -73 -61 -265 -575 -244 -651 -223 -588 -205
-631 19 -46 72 -70 120 -54 40 13 55 34 88 125 14 39 35 96 47 128 l22 57 255
-2 256 -3 49 -130 c28 -74 60 -141 73 -155 52 -52 147 -20 161 55 4 25 -36
141 -197 570 -111 297 -210 552 -221 568 -11 15 -32 34 -48 42 -31 16 -103 19
-135 5z m151 -508 l81 -217 -165 -3 c-91 -1 -167 0 -169 2 -3 2 32 104 78 225
45 122 85 219 88 216 3 -3 42 -103 87 -223z"/>
</g>
</svg>
